<svg width="101" height="49" viewBox="0 0 101 49" fill="none" xmlns="http://www.w3.org/2000/svg">
<g clip-path="url(#clip0_1_25)">
<path d="M100.019 15.8901L26.869 30.6983C20.803 31.9184 15.7089 32.5253 11.5906 32.515C6.92689 32.5033 3.54348 31.7088 1.44873 30.1295C0.131252 29.1156 -0.252805 27.8333 0.292402 26.2806C0.837609 24.728 2.2825 23.0773 4.61876 21.3226C6.56693 19.9037 9.7571 18.0408 14.1976 15.7319C12.6906 16.8684 11.5844 18.1177 10.9237 19.4293C9.75182 21.8226 10.7968 23.5838 14.0586 24.7149C15.6105 25.2421 17.746 25.5101 20.4692 25.5169C22.6429 25.5224 25.0918 25.36 27.8159 25.03L100.019 15.8901Z" fill="black"/>
</g>
<defs>
<clipPath id="clip0_1_25">
<rect width="99.9374" height="48.1248" fill="white" transform="translate(0.120178) rotate(0.143088)"/>
</clipPath>
</defs>
</svg>
